 Full Credits To Feel Free :)
 ######## ######## ######## ##          ######## ########  ######## ######## 
 ##       ##       ##       ##          ##       ##     ## ##       ##       
 ##       ##       ##       ##          ##       ##     ## ##       ##       
 ######   ######   ######   ##          ######   ########  ######   ######   
 ##       ##       ##       ##          ##       ##   ##   ##       ##       
 ##       ##       ##       ##          ##       ##    ##  ##       ##       
 ##       ######## ######## ########    ##       ##     ## ######## ######## 

 Genre: Adventure | Drama
 Language:English
 IMDb:  http://www.imdb.com/title/tt1034389/
 Source:BluRay.X264-AMIABLE Thanks!
 Subtitles:Romana

 Format : MPEG-4
 Format profile : Base Media
 Codec ID : isom
 File size : 2.73 GiB
 Duration : 1h 54mn
 Overall bit rate : 3 420 Kbps

 Video
 ID : 1
 Format : AVC
 Format/Info : Advanced Video Codec
 Format profile : High@L4.1
 Format settings, CABAC : Yes
 Format settings, ReFrames : 3 frames
 Format settings, GOP : M=1, N=24
 Codec ID : avc1
 Codec ID/Info : Advanced Video Coding
 Duration : 1h 54mn
 Bit rate mode : Variable
 Bit rate : 3 000 Kbps
 Maximum bit rate : 22.0 Mbps
 Width : 1 280 pixels
 Height : 544 pixels
 Display aspect ratio : 2.35:1
 Frame rate mode : Constant
 Frame rate : 23.976 fps
 Color space : YUV
 Chroma subsampling : 4:2:0
 Bit depth : 8 bits
 Scan type : Progressive
 Bits/(Pixel*Frame) : 0.180
 Stream size : 2.37 GiB (87%)
 Writing library : x264

 Audio
 ID : 2
 Format : AAC
 Format/Info : Advanced Audio Codec
 Format version : Version 4
 Format profile : LC
 Format settings, SBR : No
 Codec ID : 40
 Duration : 1h 54mn
 Bit rate mode : Variable
 Bit rate : 445 Kbps
 Maximum bit rate : 541 Kbps
 Channel(s) : 6 channels
 Channel positions : Front: L C R, Side: L R, LFE
 Sampling rate : 48.0 KHz
 Stream size : 363 MiB (13%)


 Plot:
 In Roman-ruled Britain, a young Roman soldier endeavors to honor his 
 father's memory by finding his lost legion's golden emblem.





 ==================================  http://thepiratebay.org/user/hiest
 ==================================





 Screen Shots:
  http://leetleech.org/images/92569771574903567079.png
  http://leetleech.org/images/84987889219023490638.png
  http://leetleech.org/images/51940045121007326489.png
  http://leetleech.org/images/94954980799809664731.png


 Full Credits To Feel Free :)
 ######## ######## ######## ##          ######## ########  ######## ######## 
 ##       ##       ##       ##          ##       ##     ## ##       ##       
 ##       ##       ##       ##          ##       ##     ## ##       ##       
 ######   ######   ######   ##          ######   ########  ######   ######   
 ##       ##       ##       ##          ##       ##   ##   ##       ##       
 ##       ##       ##       ##          ##       ##    ##  ##       ##       
 ##       ######## ######## ########    ##       ##     ## ######## ######## 